<?xml version="1.0" encoding="UTF-8" standalone="no"?>
<!DOCTYPE svg PUBLIC "-//W3C//DTD SVG 1.1//EN"
 "http://www.w3.org/Graphics/SVG/1.1/DTD/svg11.dtd">
<!-- Generated by graphviz version 2.43.0 (0)
 -->
<!-- Title: %3 Pages: 1 -->
<svg width="1223pt" height="332pt"
 viewBox="0.00 0.00 1223.00 332.00" xmlns="http://www.w3.org/2000/svg" xmlns:xlink="http://www.w3.org/1999/xlink">
<g id="graph0" class="graph" transform="scale(1 1) rotate(0) translate(4 328)">
<title>%3</title>
<polygon fill="white" stroke="transparent" points="-4,4 -4,-328 1219,-328 1219,4 -4,4"/>
<!-- [root] docker_container.LB -->
<g id="node1" class="node">
<title>[root] docker_container.LB</title>
<polygon fill="none" stroke="black" points="678.5,-180 517.5,-180 517.5,-144 678.5,-144 678.5,-180"/>
<text text-anchor="middle" x="598" y="-158.3" font-family="Times,serif" font-size="14.00">docker_container.LB</text>
</g>
<!-- [root] docker_image.alpine -->
<g id="node6" class="node">
<title>[root] docker_image.alpine</title>
<polygon fill="none" stroke="black" points="947.5,-108 784.5,-108 784.5,-72 947.5,-72 947.5,-108"/>
<text text-anchor="middle" x="866" y="-86.3" font-family="Times,serif" font-size="14.00">docker_image.alpine</text>
</g>
<!-- [root] docker_container.LB&#45;&gt;[root] docker_image.alpine -->
<g id="edge1" class="edge">
<title>[root] docker_container.LB&#45;&gt;[root] docker_image.alpine</title>
<path fill="none" stroke="black" d="M663.22,-143.97C701.72,-133.91 750.62,-121.14 790.75,-110.65"/>
<polygon fill="black" stroke="black" points="791.7,-114.02 800.49,-108.11 789.93,-107.25 791.7,-114.02"/>
</g>
<!-- [root] docker_network.app_network_1 -->
<g id="node7" class="node">
<title>[root] docker_network.app_network_1</title>
<polygon fill="none" stroke="black" points="1208,-108 966,-108 966,-72 1208,-72 1208,-108"/>
<text text-anchor="middle" x="1087" y="-86.3" font-family="Times,serif" font-size="14.00">docker_network.app_network_1</text>
</g>
<!-- [root] docker_container.LB&#45;&gt;[root] docker_network.app_network_1 -->
<g id="edge2" class="edge">
<title>[root] docker_container.LB&#45;&gt;[root] docker_network.app_network_1</title>
<path fill="none" stroke="black" d="M678.92,-145.5C681.98,-144.98 685.02,-144.48 688,-144 714.19,-139.79 849.7,-121.93 955.62,-108.09"/>
<polygon fill="black" stroke="black" points="956.31,-111.53 965.78,-106.76 955.41,-104.59 956.31,-111.53"/>
</g>
<!-- [root] docker_network.app_network_2 -->
<g id="node8" class="node">
<title>[root] docker_network.app_network_2</title>
<polygon fill="none" stroke="black" points="242,-108 0,-108 0,-72 242,-72 242,-108"/>
<text text-anchor="middle" x="121" y="-86.3" font-family="Times,serif" font-size="14.00">docker_network.app_network_2</text>
</g>
<!-- [root] docker_container.LB&#45;&gt;[root] docker_network.app_network_2 -->
<g id="edge3" class="edge">
<title>[root] docker_container.LB&#45;&gt;[root] docker_network.app_network_2</title>
<path fill="none" stroke="black" d="M517.08,-145.52C514.02,-144.99 510.98,-144.49 508,-144 460.05,-136.19 344.55,-120.52 252.13,-108.24"/>
<polygon fill="black" stroke="black" points="252.5,-104.75 242.12,-106.91 251.57,-111.69 252.5,-104.75"/>
</g>
<!-- [root] docker_network.public_network -->
<g id="node9" class="node">
<title>[root] docker_network.public_network</title>
<polygon fill="none" stroke="black" points="631.5,-108 388.5,-108 388.5,-72 631.5,-72 631.5,-108"/>
<text text-anchor="middle" x="510" y="-86.3" font-family="Times,serif" font-size="14.00">docker_network.public_network</text>
</g>
<!-- [root] docker_container.LB&#45;&gt;[root] docker_network.public_network -->
<g id="edge4" class="edge">
<title>[root] docker_container.LB&#45;&gt;[root] docker_network.public_network</title>
<path fill="none" stroke="black" d="M576.25,-143.7C565.16,-134.88 551.53,-124.03 539.51,-114.47"/>
<polygon fill="black" stroke="black" points="541.51,-111.59 531.5,-108.1 537.15,-117.07 541.51,-111.59"/>
</g>
<!-- [root] var.http_port -->
<g id="node12" class="node">
<title>[root] var.http_port</title>
<polygon fill="none" stroke="black" points="364,-108 260,-108 260,-72 370,-72 370,-102 364,-108"/>
<polyline fill="none" stroke="black" points="364,-108 364,-102 "/>
<polyline fill="none" stroke="black" points="370,-102 364,-102 "/>
<text text-anchor="middle" x="315" y="-86.3" font-family="Times,serif" font-size="14.00">var.http_port</text>
</g>
<!-- [root] docker_container.LB&#45;&gt;[root] var.http_port -->
<g id="edge5" class="edge">
<title>[root] docker_container.LB&#45;&gt;[root] var.http_port</title>
<path fill="none" stroke="black" d="M525.9,-143.98C485.56,-134.35 434.13,-121.92 379.93,-108.21"/>
<polygon fill="black" stroke="black" points="380.69,-104.79 370.14,-105.73 378.97,-111.58 380.69,-104.79"/>
</g>
<!-- [root] var.https_port -->
<g id="node13" class="node">
<title>[root] var.https_port</title>
<polygon fill="none" stroke="black" points="760.5,-108 649.5,-108 649.5,-72 766.5,-72 766.5,-102 760.5,-108"/>
<polyline fill="none" stroke="black" points="760.5,-108 760.5,-102 "/>
<polyline fill="none" stroke="black" points="766.5,-102 760.5,-102 "/>
<text text-anchor="middle" x="708" y="-86.3" font-family="Times,serif" font-size="14.00">var.https_port</text>
</g>
<!-- [root] docker_container.LB&#45;&gt;[root] var.https_port -->
<g id="edge6" class="edge">
<title>[root] docker_container.LB&#45;&gt;[root] var.https_port</title>
<path fill="none" stroke="black" d="M624.91,-143.88C639.16,-134.81 656.85,-123.55 672.24,-113.76"/>
<polygon fill="black" stroke="black" points="674.43,-116.51 680.99,-108.19 670.67,-110.61 674.43,-116.51"/>
</g>
<!-- [root] docker_container.apache_1 -->
<g id="node2" class="node">
<title>[root] docker_container.apache_1</title>
<polygon fill="none" stroke="black" points="905,-180 697,-180 697,-144 905,-144 905,-180"/>
<text text-anchor="middle" x="801" y="-158.3" font-family="Times,serif" font-size="14.00">docker_container.apache_1</text>
</g>
<!-- [root] docker_container.apache_1&#45;&gt;[root] docker_image.alpine -->
<g id="edge7" class="edge">
<title>[root] docker_container.apache_1&#45;&gt;[root] docker_image.alpine</title>
<path fill="none" stroke="black" d="M817.07,-143.7C824.94,-135.22 834.56,-124.86 843.17,-115.58"/>
<polygon fill="black" stroke="black" points="845.88,-117.81 850.12,-108.1 840.75,-113.05 845.88,-117.81"/>
</g>
<!-- [root] docker_container.apache_1&#45;&gt;[root] docker_network.app_network_1 -->
<g id="edge8" class="edge">
<title>[root] docker_container.apache_1&#45;&gt;[root] docker_network.app_network_1</title>
<path fill="none" stroke="black" d="M870.6,-143.97C911.86,-133.87 964.31,-121.03 1007.24,-110.52"/>
<polygon fill="black" stroke="black" points="1008.21,-113.89 1017.09,-108.11 1006.54,-107.09 1008.21,-113.89"/>
</g>
<!-- [root] docker_container.apache_1&#45;&gt;[root] var.http_port -->
<g id="edge9" class="edge">
<title>[root] docker_container.apache_1&#45;&gt;[root] var.http_port</title>
<path fill="none" stroke="black" d="M696.95,-145.35C693.6,-144.88 690.27,-144.44 687,-144 553.58,-126.26 516.13,-133.4 380.02,-108.04"/>
<polygon fill="black" stroke="black" points="380.52,-104.57 370.04,-106.16 379.22,-111.45 380.52,-104.57"/>
</g>
<!-- [root] docker_container.apache_1&#45;&gt;[root] var.https_port -->
<g id="edge10" class="edge">
<title>[root] docker_container.apache_1&#45;&gt;[root] var.https_port</title>
<path fill="none" stroke="black" d="M778.01,-143.7C766.19,-134.8 751.61,-123.82 738.82,-114.2"/>
<polygon fill="black" stroke="black" points="740.82,-111.32 730.72,-108.1 736.61,-116.91 740.82,-111.32"/>
</g>
<!-- [root] docker_container.apache_2 -->
<g id="node3" class="node">
<title>[root] docker_container.apache_2</title>
<polygon fill="none" stroke="black" points="499,-180 291,-180 291,-144 499,-144 499,-180"/>
<text text-anchor="middle" x="395" y="-158.3" font-family="Times,serif" font-size="14.00">docker_container.apache_2</text>
</g>
<!-- [root] docker_container.apache_2&#45;&gt;[root] docker_image.alpine -->
<g id="edge11" class="edge">
<title>[root] docker_container.apache_2&#45;&gt;[root] docker_image.alpine</title>
<path fill="none" stroke="black" d="M499.05,-145.29C502.07,-144.85 505.05,-144.42 508,-144 623.42,-127.54 655.12,-127.02 774.3,-108.07"/>
<polygon fill="black" stroke="black" points="774.86,-111.52 784.18,-106.49 773.75,-104.61 774.86,-111.52"/>
</g>
<!-- [root] docker_container.apache_2&#45;&gt;[root] docker_network.app_network_2 -->
<g id="edge12" class="edge">
<title>[root] docker_container.apache_2&#45;&gt;[root] docker_network.app_network_2</title>
<path fill="none" stroke="black" d="M328.32,-143.97C288.87,-133.89 238.75,-121.08 197.67,-110.59"/>
<polygon fill="black" stroke="black" points="198.53,-107.2 187.98,-108.11 196.8,-113.98 198.53,-107.2"/>
</g>
<!-- [root] docker_container.apache_2&#45;&gt;[root] var.http_port -->
<g id="edge13" class="edge">
<title>[root] docker_container.apache_2&#45;&gt;[root] var.http_port</title>
<path fill="none" stroke="black" d="M375.22,-143.7C365.25,-134.97 352.99,-124.24 342.14,-114.75"/>
<polygon fill="black" stroke="black" points="344.38,-112.06 334.55,-108.1 339.77,-117.32 344.38,-112.06"/>
</g>
<!-- [root] docker_container.apache_2&#45;&gt;[root] var.https_port -->
<g id="edge14" class="edge">
<title>[root] docker_container.apache_2&#45;&gt;[root] var.https_port</title>
<path fill="none" stroke="black" d="M476.81,-143.98C521.99,-134.43 579.33,-122.03 639.37,-108.11"/>
<polygon fill="black" stroke="black" points="640.48,-111.45 649.42,-105.77 638.89,-104.63 640.48,-111.45"/>
</g>
<!-- [root] docker_container.db_1 -->
<g id="node4" class="node">
<title>[root] docker_container.db_1</title>
<polygon fill="none" stroke="black" points="1099,-180 923,-180 923,-144 1099,-144 1099,-180"/>
<text text-anchor="middle" x="1011" y="-158.3" font-family="Times,serif" font-size="14.00">docker_container.db_1</text>
</g>
<!-- [root] docker_container.db_1&#45;&gt;[root] docker_image.alpine -->
<g id="edge15" class="edge">
<title>[root] docker_container.db_1&#45;&gt;[root] docker_image.alpine</title>
<path fill="none" stroke="black" d="M975.53,-143.88C955.88,-134.39 931.28,-122.51 910.37,-112.42"/>
<polygon fill="black" stroke="black" points="911.88,-109.26 901.36,-108.07 908.84,-115.57 911.88,-109.26"/>
</g>
<!-- [root] docker_container.db_1&#45;&gt;[root] docker_network.app_network_1 -->
<g id="edge16" class="edge">
<title>[root] docker_container.db_1&#45;&gt;[root] docker_network.app_network_1</title>
<path fill="none" stroke="black" d="M1029.79,-143.7C1039.17,-135.05 1050.68,-124.45 1060.91,-115.03"/>
<polygon fill="black" stroke="black" points="1063.45,-117.45 1068.43,-108.1 1058.7,-112.3 1063.45,-117.45"/>
</g>
<!-- [root] docker_container.db_2 -->
<g id="node5" class="node">
<title>[root] docker_container.db_2</title>
<polygon fill="none" stroke="black" points="273,-180 97,-180 97,-144 273,-144 273,-180"/>
<text text-anchor="middle" x="185" y="-158.3" font-family="Times,serif" font-size="14.00">docker_container.db_2</text>
</g>
<!-- [root] docker_container.db_2&#45;&gt;[root] docker_image.alpine -->
<g id="edge17" class="edge">
<title>[root] docker_container.db_2&#45;&gt;[root] docker_image.alpine</title>
<path fill="none" stroke="black" d="M273.23,-145.15C276.19,-144.74 279.12,-144.36 282,-144 496.73,-117.41 555.36,-135.64 774.02,-108.03"/>
<polygon fill="black" stroke="black" points="774.74,-111.47 784.22,-106.72 773.85,-104.52 774.74,-111.47"/>
</g>
<!-- [root] docker_container.db_2&#45;&gt;[root] docker_network.app_network_2 -->
<g id="edge18" class="edge">
<title>[root] docker_container.db_2&#45;&gt;[root] docker_network.app_network_2</title>
<path fill="none" stroke="black" d="M169.18,-143.7C161.43,-135.22 151.96,-124.86 143.48,-115.58"/>
<polygon fill="black" stroke="black" points="145.97,-113.12 136.64,-108.1 140.8,-117.85 145.97,-113.12"/>
</g>
<!-- [root] provider.docker -->
<g id="node10" class="node">
<title>[root] provider.docker</title>
<polygon fill="none" stroke="black" points="688,-36 570.2,-18 688,0 805.8,-18 688,-36"/>
<text text-anchor="middle" x="688" y="-14.3" font-family="Times,serif" font-size="14.00">provider.docker</text>
</g>
<!-- [root] docker_image.alpine&#45;&gt;[root] provider.docker -->
<g id="edge19" class="edge">
<title>[root] docker_image.alpine&#45;&gt;[root] provider.docker</title>
<path fill="none" stroke="black" d="M822.46,-71.88C793.92,-60.65 756.85,-46.08 728.86,-35.07"/>
<polygon fill="black" stroke="black" points="729.96,-31.74 719.37,-31.34 727.4,-38.25 729.96,-31.74"/>
</g>
<!-- [root] docker_network.app_network_1&#45;&gt;[root] provider.docker -->
<g id="edge20" class="edge">
<title>[root] docker_network.app_network_1&#45;&gt;[root] provider.docker</title>
<path fill="none" stroke="black" d="M989.9,-71.97C915.13,-58.85 814.02,-41.11 749.9,-29.86"/>
<polygon fill="black" stroke="black" points="750.39,-26.39 739.93,-28.11 749.18,-33.29 750.39,-26.39"/>
</g>
<!-- [root] docker_network.app_network_2&#45;&gt;[root] provider.docker -->
<g id="edge21" class="edge">
<title>[root] docker_network.app_network_2&#45;&gt;[root] provider.docker</title>
<path fill="none" stroke="black" d="M242.09,-73.13C245.09,-72.75 248.06,-72.37 251,-72 379,-55.87 528.22,-37.97 615.01,-27.64"/>
<polygon fill="black" stroke="black" points="615.5,-31.11 625.02,-26.45 614.67,-24.16 615.5,-31.11"/>
</g>
<!-- [root] docker_network.public_network&#45;&gt;[root] provider.docker -->
<g id="edge22" class="edge">
<title>[root] docker_network.public_network&#45;&gt;[root] provider.docker</title>
<path fill="none" stroke="black" d="M553.54,-71.88C582.08,-60.65 619.15,-46.08 647.14,-35.07"/>
<polygon fill="black" stroke="black" points="648.6,-38.25 656.63,-31.34 646.04,-31.74 648.6,-38.25"/>
</g>
<!-- [root] var.db_port -->
<g id="node11" class="node">
<title>[root] var.db_port</title>
<polygon fill="none" stroke="black" points="1209,-180 1117,-180 1117,-144 1215,-144 1215,-174 1209,-180"/>
<polyline fill="none" stroke="black" points="1209,-180 1209,-174 "/>
<polyline fill="none" stroke="black" points="1215,-174 1209,-174 "/>
<text text-anchor="middle" x="1166" y="-158.3" font-family="Times,serif" font-size="14.00">var.db_port</text>
</g>
<!-- [root] meta.count&#45;boundary (EachMode fixup) -->
<g id="node14" class="node">
<title>[root] meta.count&#45;boundary (EachMode fixup)</title>
<ellipse fill="none" stroke="black" cx="801" cy="-234" rx="223.66" ry="18"/>
<text text-anchor="middle" x="801" y="-230.3" font-family="Times,serif" font-size="14.00">[root] meta.count&#45;boundary (EachMode fixup)</text>
</g>
<!-- [root] meta.count&#45;boundary (EachMode fixup)&#45;&gt;[root] docker_container.LB -->
<g id="edge23" class="edge">
<title>[root] meta.count&#45;boundary (EachMode fixup)&#45;&gt;[root] docker_container.LB</title>
<path fill="none" stroke="black" d="M752.89,-216.41C724.22,-206.52 687.6,-193.9 657.17,-183.4"/>
<polygon fill="black" stroke="black" points="658.12,-180.03 647.53,-180.08 655.84,-186.65 658.12,-180.03"/>
</g>
<!-- [root] meta.count&#45;boundary (EachMode fixup)&#45;&gt;[root] docker_container.apache_1 -->
<g id="edge24" class="edge">
<title>[root] meta.count&#45;boundary (EachMode fixup)&#45;&gt;[root] docker_container.apache_1</title>
<path fill="none" stroke="black" d="M801,-215.7C801,-207.98 801,-198.71 801,-190.11"/>
<polygon fill="black" stroke="black" points="804.5,-190.1 801,-180.1 797.5,-190.1 804.5,-190.1"/>
</g>
<!-- [root] meta.count&#45;boundary (EachMode fixup)&#45;&gt;[root] docker_container.apache_2 -->
<g id="edge25" class="edge">
<title>[root] meta.count&#45;boundary (EachMode fixup)&#45;&gt;[root] docker_container.apache_2</title>
<path fill="none" stroke="black" d="M711.15,-217.51C650.07,-206.98 568.91,-192.98 504.11,-181.81"/>
<polygon fill="black" stroke="black" points="504.31,-178.29 493.86,-180.04 503.12,-185.19 504.31,-178.29"/>
</g>
<!-- [root] meta.count&#45;boundary (EachMode fixup)&#45;&gt;[root] docker_container.db_1 -->
<g id="edge26" class="edge">
<title>[root] meta.count&#45;boundary (EachMode fixup)&#45;&gt;[root] docker_container.db_1</title>
<path fill="none" stroke="black" d="M850.77,-216.41C880.55,-206.48 918.63,-193.79 950.2,-183.27"/>
<polygon fill="black" stroke="black" points="951.38,-186.56 959.76,-180.08 949.17,-179.92 951.38,-186.56"/>
</g>
<!-- [root] meta.count&#45;boundary (EachMode fixup)&#45;&gt;[root] docker_container.db_2 -->
<g id="edge27" class="edge">
<title>[root] meta.count&#45;boundary (EachMode fixup)&#45;&gt;[root] docker_container.db_2</title>
<path fill="none" stroke="black" d="M651.61,-220.61C550.36,-211.52 413.31,-197.91 283.38,-180.14"/>
<polygon fill="black" stroke="black" points="283.63,-176.64 273.25,-178.74 282.67,-183.57 283.63,-176.64"/>
</g>
<!-- [root] meta.count&#45;boundary (EachMode fixup)&#45;&gt;[root] var.db_port -->
<g id="edge28" class="edge">
<title>[root] meta.count&#45;boundary (EachMode fixup)&#45;&gt;[root] var.db_port</title>
<path fill="none" stroke="black" d="M905.33,-218.02C962.45,-209.09 1034.58,-196.65 1106.99,-180.11"/>
<polygon fill="black" stroke="black" points="1107.78,-183.52 1116.74,-177.85 1106.21,-176.69 1107.78,-183.52"/>
</g>
<!-- [root] provider.docker (close) -->
<g id="node15" class="node">
<title>[root] provider.docker (close)</title>
<ellipse fill="none" stroke="black" cx="414" cy="-234" rx="145.67" ry="18"/>
<text text-anchor="middle" x="414" y="-230.3" font-family="Times,serif" font-size="14.00">[root] provider.docker (close)</text>
</g>
<!-- [root] provider.docker (close)&#45;&gt;[root] docker_container.LB -->
<g id="edge29" class="edge">
<title>[root] provider.docker (close)&#45;&gt;[root] docker_container.LB</title>
<path fill="none" stroke="black" d="M456.68,-216.76C482.6,-206.9 515.95,-194.22 543.74,-183.64"/>
<polygon fill="black" stroke="black" points="545.21,-186.83 553.31,-180 542.72,-180.29 545.21,-186.83"/>
</g>
<!-- [root] provider.docker (close)&#45;&gt;[root] docker_container.apache_1 -->
<g id="edge30" class="edge">
<title>[root] provider.docker (close)&#45;&gt;[root] docker_container.apache_1</title>
<path fill="none" stroke="black" d="M492.78,-218.75C551.62,-208.11 632.62,-193.46 696.81,-181.85"/>
<polygon fill="black" stroke="black" points="697.75,-185.23 706.97,-180.01 696.5,-178.34 697.75,-185.23"/>
</g>
<!-- [root] provider.docker (close)&#45;&gt;[root] docker_container.apache_2 -->
<g id="edge31" class="edge">
<title>[root] provider.docker (close)&#45;&gt;[root] docker_container.apache_2</title>
<path fill="none" stroke="black" d="M409.3,-215.7C407.19,-207.9 404.64,-198.51 402.28,-189.83"/>
<polygon fill="black" stroke="black" points="405.64,-188.84 399.64,-180.1 398.88,-190.67 405.64,-188.84"/>
</g>
<!-- [root] provider.docker (close)&#45;&gt;[root] docker_container.db_1 -->
<g id="edge32" class="edge">
<title>[root] provider.docker (close)&#45;&gt;[root] docker_container.db_1</title>
<path fill="none" stroke="black" d="M518.37,-221.39C534.97,-219.57 551.95,-217.72 568,-216 718.42,-199.87 759.14,-201.29 912.49,-180.16"/>
<polygon fill="black" stroke="black" points="913.33,-183.58 922.75,-178.74 912.37,-176.64 913.33,-183.58"/>
</g>
<!-- [root] provider.docker (close)&#45;&gt;[root] docker_container.db_2 -->
<g id="edge33" class="edge">
<title>[root] provider.docker (close)&#45;&gt;[root] docker_container.db_2</title>
<path fill="none" stroke="black" d="M362.04,-217.12C328.99,-207.01 285.91,-193.85 250.52,-183.03"/>
<polygon fill="black" stroke="black" points="251.35,-179.62 240.76,-180.04 249.3,-186.31 251.35,-179.62"/>
</g>
<!-- [root] root -->
<g id="node16" class="node">
<title>[root] root</title>
<ellipse fill="none" stroke="black" cx="607" cy="-306" rx="58.49" ry="18"/>
<text text-anchor="middle" x="607" y="-302.3" font-family="Times,serif" font-size="14.00">[root] root</text>
</g>
<!-- [root] root&#45;&gt;[root] meta.count&#45;boundary (EachMode fixup) -->
<g id="edge34" class="edge">
<title>[root] root&#45;&gt;[root] meta.count&#45;boundary (EachMode fixup)</title>
<path fill="none" stroke="black" d="M643.49,-291.83C672.16,-281.49 712.57,-266.91 745.29,-255.1"/>
<polygon fill="black" stroke="black" points="746.51,-258.38 754.73,-251.7 744.14,-251.8 746.51,-258.38"/>
</g>
<!-- [root] root&#45;&gt;[root] provider.docker (close) -->
<g id="edge35" class="edge">
<title>[root] root&#45;&gt;[root] provider.docker (close)</title>
<path fill="none" stroke="black" d="M570.7,-291.83C541.78,-281.34 500.85,-266.5 468.07,-254.61"/>
<polygon fill="black" stroke="black" points="469.22,-251.3 458.62,-251.18 466.83,-257.88 469.22,-251.3"/>
</g>
</g>
</svg>
